<?xml version="1.0" encoding="utf-8"?>
<!-- Generator: Adobe Illustrator 22.1.0, SVG Export Plug-In . SVG Version: 6.00 Build 0)  -->
<svg version="1.1" id="Layer_1" xmlns="http://www.w3.org/2000/svg" xmlns:xlink="http://www.w3.org/1999/xlink" x="0px" y="0px"
	 viewBox="0 0 100 100" enable-background="new 0 0 100 100" xml:space="preserve">
<g>
	<path fill="#764ABC" d="M69.1,68.6c3.7-0.4,6.4-3.5,6.3-7.3c-0.1-3.8-3.3-6.8-7.1-6.8h-0.3c-3.9,0.1-6.9,3.4-6.8,7.3
		c0.1,1.9,0.9,3.5,2,4.7C59,74.9,52.5,81.1,42.6,86.3C36,89.8,29,91.1,22.1,90.2c-5.7-0.8-10.1-3.3-12.9-7.4c-4-6.2-4.4-12.9-1-19.5
		c2.4-4.8,6.2-8.3,8.6-10.1c-0.5-1.6-1.3-4.4-1.6-6.4C-3.1,60-1.2,77.8,4.3,86.3c4.2,6.3,12.6,10.2,21.9,10.2c2.5,0,5-0.3,7.6-0.9
		C49.9,92.5,62.2,82.9,69.1,68.6z"/>
	<path fill="#764ABC" d="M91.3,53c-9.6-11.2-23.7-17.4-39.8-17.4h-2c-1.1-2.3-3.5-3.8-6.2-3.8H43c-3.9,0.1-6.9,3.4-6.8,7.3
		c0.1,3.8,3.3,6.8,7.1,6.8h0.3c2.8-0.1,5.2-1.9,6.2-4.3H52c9.6,0,18.6,2.8,26.8,8.2C85.1,54,89.6,59.4,92.2,66
		c2.1,5.3,2,10.5-0.3,14.9c-3.5,6.7-9.4,10.3-17.3,10.3c-5,0-9.8-1.5-12.3-2.6c-1.4,1.3-3.9,3.3-5.7,4.5c5.4,2.5,11,3.9,16.3,3.9
		c12.1,0,21-6.7,24.4-13.4C101,76.3,100.7,63.7,91.3,53z"/>
	<path fill="#764ABC" d="M27.3,70.8c0.1,3.8,3.3,6.8,7.1,6.8h0.3c3.9-0.1,6.9-3.4,6.8-7.3c-0.1-3.8-3.3-6.8-7.1-6.8h-0.3
		c-0.3,0-0.6,0-0.9,0.1c-5.2-8.6-7.3-17.9-6.6-28c0.5-7.6,3-14.1,7.4-19.5c3.7-4.7,10.7-6.9,15.5-7.1c13.4-0.3,19,16.4,19.4,23.1
		c1.6,0.4,4.4,1.3,6.3,1.9C73.8,13.6,61.2,3,49.1,3c-11.3,0-21.8,8.2-26,20.3c-5.8,16.1-2,31.6,5,43.8C27.5,68,27.1,69.4,27.3,70.8z
		"/>
</g>
</svg>
