<?xml version="1.0" encoding="utf-8"?>
<!-- Generator: Adobe Illustrator 22.1.0, SVG Export Plug-In . SVG Version: 6.00 Build 0)  -->
<svg version="1.1" id="Layer_1" xmlns="http://www.w3.org/2000/svg" xmlns:xlink="http://www.w3.org/1999/xlink" x="0px" y="0px"
	 viewBox="0 0 500 500" enable-background="new 0 0 500 500" xml:space="preserve">
<g>
	<path fill="#00A6CC" d="M315.4,183.5c1.2-7.7,1.8-15.6,1.8-23.7c0-87.2-70.7-158-158-158s-158,70.7-158,158s70.7,158,158,158
		c8,0,15.9-0.6,23.6-1.8C193.1,247.7,247.1,193.7,315.4,183.5z"/>
</g>
<g>
	<path fill="#03B5AA" d="M339,181.7c-8,0-15.9,0.6-23.6,1.8c-10.3,68.3-64.2,122.3-132.6,132.5c-1.2,7.7-1.8,15.6-1.8,23.7
		c0,87.2,70.7,158,158,158s158-70.7,158-158S426.3,181.7,339,181.7z"/>
</g>
<g>
	<path fill="#0088A8" d="M315.4,183.5c-68.3,10.3-122.3,64.2-132.6,132.5C251.1,305.8,305.1,251.8,315.4,183.5z"/>
</g>
<g>
	<path fill="#F2F2F2" d="M344.8,373.9c-6.3,5.5-15,8.2-26.1,8.2c-11.3,0-20-2.7-26.2-8.2c-6.2-5.4-9.3-13.8-9.3-25.2V297h18.3v51.8
		c0,2.3,0.2,4.5,0.6,6.6c0.4,2.2,1.2,4.1,2.4,5.8c1.2,1.7,3,3,5.2,4.1c2.2,1,5.2,1.6,8.9,1.6c6.5,0,11-1.5,13.5-4.4
		c2.5-2.9,3.7-7.5,3.7-13.7V297h18.3v51.8C354.2,360.1,351.1,368.4,344.8,373.9z"/>
	<path fill="#F2F2F2" d="M388.3,297v83.2H370V297H388.3z"/>
</g>
<g>
	<path fill="#F2F2F2" d="M142.2,194.2c-6.3,5.5-15,8.2-26.1,8.2c-11.3,0-20-2.7-26.2-8.2c-6.2-5.4-9.3-13.8-9.3-25.2v-51.8H99v51.8
		c0,2.3,0.2,4.5,0.6,6.6c0.4,2.2,1.2,4.1,2.4,5.8c1.2,1.7,3,3,5.2,4.1c2.2,1,5.2,1.6,8.9,1.6c6.5,0,11-1.5,13.5-4.4
		c2.5-2.9,3.7-7.5,3.7-13.7v-51.8h18.3v51.8C151.7,180.4,148.5,188.8,142.2,194.2z"/>
	<path fill="#F2F2F2" d="M161,117.4h21.2l16.3,26.6l16.9-26.6h20l-26.7,39.8l29,43.5H216l-18.2-28.8l-18.5,28.8h-20.5l29-43.6
		L161,117.4z"/>
</g>
</svg>
